P2
#...
3 7
255
30	120	196
215	198	180
135	4	172
210	138	252
41	192	53
5	100	132
110	46	203
